<?xml version="1.0" encoding="iso-8859-1"?>
<!-- Generator: Adobe Illustrator 17.1.0, SVG Export Plug-In . SVG Version: 6.00 Build 0)  -->
<!DOCTYPE svg PUBLIC "-//W3C//DTD SVG 1.1//EN" "http://www.w3.org/Graphics/SVG/1.1/DTD/svg11.dtd">
<svg version="1.1" id="Capa_1" xmlns="http://www.w3.org/2000/svg" xmlns:xlink="http://www.w3.org/1999/xlink" x="0px" y="0px"
	 viewBox="0 0 355.906 355.906" style="enable-background:new 0 0 355.906 355.906;" xml:space="preserve">
<path d="M233.712,119.935l19.857-28.199c4.77-6.773,3.145-16.131-3.628-20.9c-4.467-3.145-10.051-3.493-14.708-1.435l9.217-14.505
	c1.599-2.513,1.662-6.062,0.153-8.629L219.888,4.193C218.438,1.725,215.426,0,212.563,0H142.07c-2.911,0-5.93,1.776-7.342,4.32
	l-23.524,42.344c-1.411,2.538-1.33,6.037,0.197,8.508l8.618,13.943c-4.518-1.745-9.795-1.277-14.053,1.721
	c-6.773,4.77-8.398,14.127-3.628,20.9l19.857,28.199c-40.776,20.495-68.825,62.724-68.825,111.387
	c0,68.696,55.888,124.584,124.584,124.584s124.584-55.888,124.584-124.584C302.537,182.659,274.488,140.43,233.712,119.935z
	 M177.953,325.906c-52.154,0-94.584-42.431-94.584-94.584s42.43-94.584,94.584-94.584s94.584,42.431,94.584,94.584
	S230.107,325.906,177.953,325.906z"/>
<g>
</g>
<g>
</g>
<g>
</g>
<g>
</g>
<g>
</g>
<g>
</g>
<g>
</g>
<g>
</g>
<g>
</g>
<g>
</g>
<g>
</g>
<g>
</g>
<g>
</g>
<g>
</g>
<g>
</g>
</svg>
